<?xml version="1.0" encoding="UTF-8"?>
<svg xmlns="http://www.w3.org/2000/svg" version="1.1" width="500" height="500" viewBox="0 0 500 500"><rect x="0" y="0" width="500" height="500" fill="#ffffff"/><g transform="scale(16.129)"><g transform="translate(1,1)"><g><g transform="translate(3.5,3.5)"><path fill-rule="evenodd" d="M-3.5 -3.5L3.5 -3.5L3.5 3.5L-3.5 3.5ZM-2.5 -2.5L-2.5 2.5L2.5 2.5L2.5 -2.5Z" fill="#000000"/><path fill-rule="evenodd" d="M-1.5 -1.5L1.5 -1.5L1.5 1.5L-1.5 1.5Z" fill="#000000"/></g></g><g><g transform="translate(25.5,3.5)"><g transform="rotate(90)"><path fill-rule="evenodd" d="M-3.5 -3.5L3.5 -3.5L3.5 3.5L-3.5 3.5ZM-2.5 -2.5L-2.5 2.5L2.5 2.5L2.5 -2.5Z" fill="#000000"/><path fill-rule="evenodd" d="M-1.5 -1.5L1.5 -1.5L1.5 1.5L-1.5 1.5Z" fill="#000000"/></g></g></g><g><g transform="translate(3.5,25.5)"><g transform="rotate(-90)"><path fill-rule="evenodd" d="M-3.5 -3.5L3.5 -3.5L3.5 3.5L-3.5 3.5ZM-2.5 -2.5L-2.5 2.5L2.5 2.5L2.5 -2.5Z" fill="#000000"/><path fill-rule="evenodd" d="M-1.5 -1.5L1.5 -1.5L1.5 1.5L-1.5 1.5Z" fill="#000000"/></g></g></g><path fill-rule="evenodd" d="M9 0L9 2L8 2L8 8L9 8L9 10L8 10L8 11L7 11L7 10L6 10L6 9L7 9L7 8L2 8L2 9L1 9L1 8L0 8L0 9L1 9L1 10L0 10L0 12L1 12L1 14L0 14L0 21L1 21L1 18L2 18L2 17L1 17L1 16L3 16L3 17L4 17L4 18L5 18L5 19L7 19L7 18L6 18L6 17L7 17L7 16L6 16L6 15L7 15L7 14L5 14L5 13L7 13L7 12L8 12L8 16L9 16L9 17L10 17L10 19L9 19L9 18L8 18L8 19L9 19L9 21L8 21L8 22L9 22L9 23L8 23L8 27L9 27L9 28L8 28L8 29L10 29L10 27L9 27L9 24L10 24L10 26L11 26L11 24L14 24L14 25L15 25L15 26L16 26L16 27L18 27L18 28L15 28L15 27L14 27L14 28L13 28L13 29L14 29L14 28L15 28L15 29L20 29L20 27L18 27L18 26L19 26L19 25L20 25L20 26L21 26L21 27L22 27L22 26L21 26L21 25L23 25L23 27L24 27L24 25L25 25L25 23L26 23L26 25L29 25L29 23L27 23L27 22L28 22L28 20L29 20L29 19L27 19L27 18L26 18L26 17L25 17L25 15L27 15L27 16L29 16L29 14L28 14L28 13L27 13L27 14L26 14L26 13L24 13L24 14L23 14L23 13L22 13L22 12L23 12L23 11L20 11L20 10L17 10L17 9L16 9L16 8L15 8L15 9L14 9L14 8L12 8L12 7L13 7L13 6L14 6L14 7L15 7L15 6L16 6L16 7L17 7L17 8L18 8L18 9L19 9L19 8L20 8L20 9L21 9L21 6L20 6L20 7L19 7L19 6L18 6L18 5L17 5L17 4L18 4L18 3L20 3L20 4L19 4L19 5L20 5L20 4L21 4L21 2L20 2L20 0L19 0L19 1L17 1L17 0L14 0L14 1L13 1L13 2L12 2L12 1L10 1L10 0ZM14 1L14 2L13 2L13 4L12 4L12 3L11 3L11 2L10 2L10 3L9 3L9 4L10 4L10 5L11 5L11 7L10 7L10 6L9 6L9 8L11 8L11 7L12 7L12 6L13 6L13 5L16 5L16 4L17 4L17 2L15 2L15 1ZM14 2L14 4L16 4L16 3L15 3L15 2ZM10 3L10 4L11 4L11 5L12 5L12 4L11 4L11 3ZM17 6L17 7L18 7L18 6ZM22 8L22 9L23 9L23 10L24 10L24 9L25 9L25 11L24 11L24 12L26 12L26 11L27 11L27 10L28 10L28 9L27 9L27 8ZM2 9L2 10L3 10L3 11L4 11L4 12L2 12L2 14L3 14L3 13L5 13L5 11L4 11L4 10L5 10L5 9ZM10 9L10 10L11 10L11 11L12 11L12 13L11 13L11 12L10 12L10 11L9 11L9 13L10 13L10 14L9 14L9 16L10 16L10 17L11 17L11 16L12 16L12 14L13 14L13 13L14 13L14 14L15 14L15 12L16 12L16 14L20 14L20 15L23 15L23 14L22 14L22 13L21 13L21 12L18 12L18 13L17 13L17 11L15 11L15 10L14 10L14 9L13 9L13 11L12 11L12 9ZM26 9L26 10L27 10L27 9ZM6 11L6 12L7 12L7 11ZM28 11L28 12L29 12L29 11ZM20 13L20 14L21 14L21 13ZM4 14L4 15L5 15L5 14ZM10 14L10 15L11 15L11 14ZM24 14L24 15L25 15L25 14ZM14 15L14 16L13 16L13 19L10 19L10 21L9 21L9 22L11 22L11 21L12 21L12 23L13 23L13 21L15 21L15 22L18 22L18 20L19 20L19 22L20 22L20 20L19 20L19 19L23 19L23 18L24 18L24 19L25 19L25 20L27 20L27 19L25 19L25 18L24 18L24 17L23 17L23 18L22 18L22 16L21 16L21 17L20 17L20 16L19 16L19 15ZM4 16L4 17L6 17L6 16ZM14 16L14 17L15 17L15 19L14 19L14 20L15 20L15 21L17 21L17 20L18 20L18 19L19 19L19 18L20 18L20 17L18 17L18 16ZM17 17L17 18L16 18L16 19L15 19L15 20L16 20L16 19L17 19L17 18L18 18L18 17ZM2 19L2 20L4 20L4 21L5 21L5 20L4 20L4 19ZM6 20L6 21L7 21L7 20ZM12 20L12 21L13 21L13 20ZM21 21L21 24L24 24L24 21ZM25 21L25 22L27 22L27 21ZM22 22L22 23L23 23L23 22ZM14 23L14 24L16 24L16 26L18 26L18 25L17 25L17 24L19 24L19 23ZM12 25L12 27L13 27L13 25ZM26 26L26 27L25 27L25 28L24 28L24 29L27 29L27 27L28 27L28 28L29 28L29 27L28 27L28 26ZM11 28L11 29L12 29L12 28ZM21 28L21 29L23 29L23 28Z" fill="#000000"/></g></g></svg>
